<?xml version="1.0" encoding="iso-8859-1"?>
<!-- Generator: Adobe Illustrator 19.0.0, SVG Export Plug-In . SVG Version: 6.00 Build 0)  -->
<svg version="1.1" id="Layer_1" xmlns="http://www.w3.org/2000/svg" xmlns:xlink="http://www.w3.org/1999/xlink" x="0px" y="0px"
	 viewBox="0 0 512 512" style="enable-background:new 0 0 512 512;" xml:space="preserve">
<path style="fill:#FFDA71;" d="M256,32C132.48,32,32,132.48,32,256s100.48,224,224,224s224-100.48,224-224S379.52,32,256,32z
	 M121.744,216.4l29.552-29.552l-29.552-29.536l22.624-22.624l29.552,29.552l29.552-29.552l22.624,22.624l-29.552,29.552
	l29.552,29.552l-22.624,22.624l-29.552-29.552l-29.552,29.552L121.744,216.4z M260.64,416.496c-37.104,0-67.168-30.08-67.168-67.168
	c0-37.104,30.08-67.168,67.168-67.168c37.104,0,67.168,30.08,67.168,67.168C327.824,386.416,297.744,416.496,260.64,416.496z
	 M390.256,216.4l-22.624,22.624l-29.552-29.552l-29.552,29.552L285.904,216.4l29.552-29.552l-29.552-29.552l22.624-22.624
	l29.552,29.552l29.552-29.552l22.624,22.624l-29.552,29.552L390.256,216.4z"/>
<g>
	<path style="fill:#333333;" d="M256,0C114.608,0,0,114.608,0,256s114.608,256,256,256s256-114.608,256-256S397.392,0,256,0z
		 M256,480C132.48,480,32,379.52,32,256S132.48,32,256,32s224,100.48,224,224S379.52,480,256,480z"/>
	<circle style="fill:#333333;" cx="260.64" cy="349.312" r="67.168"/>
	<polygon style="fill:#333333;" points="226.096,216.4 196.544,186.848 226.096,157.312 203.472,134.672 173.92,164.224 
		144.368,134.672 121.744,157.312 151.296,186.848 121.744,216.4 144.368,239.024 173.92,209.488 203.472,239.024 	"/>
	<polygon style="fill:#333333;" points="367.632,134.672 338.08,164.224 308.528,134.672 285.904,157.312 315.456,186.848 
		285.904,216.4 308.528,239.024 338.08,209.488 367.632,239.024 390.256,216.4 360.704,186.848 390.256,157.312 	"/>
</g>
<g>
</g>
<g>
</g>
<g>
</g>
<g>
</g>
<g>
</g>
<g>
</g>
<g>
</g>
<g>
</g>
<g>
</g>
<g>
</g>
<g>
</g>
<g>
</g>
<g>
</g>
<g>
</g>
<g>
</g>
</svg>
