<?xml version="1.0" encoding="iso-8859-1"?>
<!-- Generator: Adobe Illustrator 19.0.0, SVG Export Plug-In . SVG Version: 6.00 Build 0)  -->
<svg version="1.1" id="Layer_1" xmlns="http://www.w3.org/2000/svg" xmlns:xlink="http://www.w3.org/1999/xlink" x="0px" y="0px"
	 viewBox="0 0 512 512" style="enable-background:new 0 0 512 512;" xml:space="preserve">
<path style="fill:#7CE8E8;" d="M256,480c123.52,0,224-100.48,224-224S379.52,32,256,32S32,132.48,32,256S132.48,480,256,480z
	 M347.264,138.608c24.608,0,44.56,19.952,44.56,44.56s-19.952,44.56-44.56,44.56s-44.56-19.952-44.56-44.56
	C302.72,158.544,322.656,138.608,347.264,138.608z M371.36,291.632c0,63.712-51.648,115.36-115.36,115.36
	s-115.36-51.648-115.36-115.36L371.36,291.632L371.36,291.632z M164.736,138.608c24.608,0,44.56,19.952,44.56,44.56
	s-19.952,44.56-44.56,44.56s-44.56-19.952-44.56-44.56C120.176,158.544,140.128,138.608,164.736,138.608z"/>
<g>
	<path style="fill:#333333;" d="M256,512c141.392,0,256-114.608,256-256S397.392,0,256,0S0,114.608,0,256S114.608,512,256,512z
		 M256,32c123.52,0,224,100.48,224,224S379.52,480,256,480S32,379.52,32,256S132.48,32,256,32z"/>
	<path style="fill:#333333;" d="M256,407.008c63.712,0,115.36-51.648,115.36-115.36H140.64
		C140.64,355.344,192.288,407.008,256,407.008z"/>
	<circle style="fill:#333333;" cx="164.736" cy="183.152" r="44.56"/>
	<circle style="fill:#333333;" cx="347.264" cy="183.152" r="44.56"/>
</g>
<g>
</g>
<g>
</g>
<g>
</g>
<g>
</g>
<g>
</g>
<g>
</g>
<g>
</g>
<g>
</g>
<g>
</g>
<g>
</g>
<g>
</g>
<g>
</g>
<g>
</g>
<g>
</g>
<g>
</g>
</svg>
