<?xml version="1.0" encoding="utf-8"?>
<!-- Generator: Adobe Illustrator 22.0.1, SVG Export Plug-In . SVG Version: 6.00 Build 0)  -->
<svg version="1.1" id="Capa_1" xmlns="http://www.w3.org/2000/svg" xmlns:xlink="http://www.w3.org/1999/xlink" x="0px" y="0px"
	 viewBox="0 0 591.6 591.6" style="enable-background:new 0 0 591.6 591.6;" xml:space="preserve">
<g>
	<g>
		<path d="M540.6,0H153c-28.2,0-51,22.8-51,51v51H51c-28.2,0-51,22.8-51,51v387.6c0,28.2,22.8,51,51,51h387.6c28.2,0,51-22.8,51-51
			v-51h51c28.2,0,51-22.8,51-51V51C591.6,22.8,568.8,0,540.6,0z M469.2,540.6c0,16.9-13.7,30.6-30.6,30.6H51
			c-16.9,0-30.6-13.7-30.6-30.6V153c0-16.9,13.7-30.6,30.6-30.6h387.6c16.9,0,30.6,13.7,30.6,30.6V540.6z M571.2,438.6
			c0,16.9-13.7,30.6-30.6,30.6h-51V153c0-28.2-22.8-51-51-51H122.4V51c0-16.9,13.7-30.6,30.6-30.6h387.6c16.9,0,30.6,13.7,30.6,30.6
			L571.2,438.6L571.2,438.6z"/>
	</g>
</g>
</svg>
