<svg xmlns="http://www.w3.org/2000/svg" viewBox="0 0 512 512"><defs><style>.cls-1{fill:#fff;}.cls-2{fill:#1578ff;}.cls-3{fill:#fe585d;}.cls-4{fill:#f93;}.cls-5{fill:#41b883;}.cls-6{fill:#35495e;}</style></defs><title>vue-layer</title><g id="图层_2" data-name="图层 2"><g id="Capa_1" data-name="Capa 1"><rect class="cls-1" x="16" y="16" width="335.4" height="335.41"/><path class="cls-2" d="M335.4,32V335.4H32V32H335.4m32-32H0V367.4H367.4V0Z"/><rect class="cls-1" x="88.32" y="88.32" width="335.4" height="335.41"/><path class="cls-3" d="M407.7,104.3V407.7H104.3V104.3H407.7m32-32H72.3V439.7H439.7V72.3Z"/><rect class="cls-1" x="160.56" y="160.56" width="335.41" height="335.4"/><path class="cls-4" d="M480,176.6V480H176.6V176.6H480m32-32H144.6V512H512V144.6Z"/><path class="cls-5" d="M438.52,193H512L328.3,509.85,144.6,193H285.13l43.17,73.48L370.55,193Z"/><path class="cls-5" d="M144.6,193,328.3,509.85,512,193H438.52L328.3,383.1,217.16,193Z"/><path class="cls-6" d="M217.16,193,328.3,384,438.52,193h-68L328.3,266.45,285.13,193Z"/></g></g></svg>