<?xml version="1.0" encoding="utf-8"?>
<!-- Generator: Adobe Illustrator 23.0.2, SVG Export Plug-In . SVG Version: 6.00 Build 0)  -->
<svg version="1.1" id="Capa_1" xmlns="http://www.w3.org/2000/svg" xmlns:xlink="http://www.w3.org/1999/xlink" x="0px" y="0px"
	 viewBox="0 0 52 52" style="enable-background:new 0 0 52 52;" xml:space="preserve">
<style type="text/css">
	.st0{fill:#FFFFFF;}
	.st1{fill:#1e9fff;}
</style>
<g>
	<circle class="st0" cx="26" cy="26" r="26"/>
	<path class="st1" d="M40.6,11.4c-8-8-21.1-8-29.2,0s-8,21.1,0,29.2s21.1,8,29.2,0C48.6,32.5,48.6,19.4,40.6,11.4z M34.1,34.1
		c-0.6,0.6-1.6,0.6-2.2,0L26,28.2l-6.2,6.2c-0.6,0.6-1.6,0.6-2.2,0c-0.6-0.6-0.6-1.6,0-2.2l6.2-6.2l-5.9-5.9c-0.6-0.6-0.6-1.6,0-2.2
		c0.6-0.6,1.6-0.6,2.2,0l5.9,5.9l5.6-5.6c0.6-0.6,1.6-0.6,2.2,0c0.6,0.6,0.6,1.6,0,2.2L28.2,26l5.9,5.9
		C34.7,32.5,34.7,33.5,34.1,34.1z"/>
</g>
</svg>
